<svg width="24" height="24" viewBox="0 0 24 24" fill="none" xmlns="http://www.w3.org/2000/svg">
<path fill-rule="evenodd" clip-rule="evenodd" d="M18.5572 5.4428C17.9972 3.59504 16.2807 2.25 14.25 2.25H6.75C4.26472 2.25 2.25 4.26472 2.25 6.75V14.25C2.25 16.2807 3.59504 17.9972 5.4428 18.5572C6.00285 20.405 7.71935 21.75 9.75 21.75H17.25C19.7353 21.75 21.75 19.7353 21.75 17.25V9.75C21.75 7.71935 20.405 6.00285 18.5572 5.4428ZM14.25 3.75H6.75C5.09315 3.75 3.75 5.09315 3.75 6.75V14.25C3.75 15.3604 4.3533 16.3299 5.25 16.8487V9.75C5.25 7.26472 7.26472 5.25 9.75 5.25H16.8487C16.3299 4.3533 15.3604 3.75 14.25 3.75ZM9.75 6.75H17.25C18.9069 6.75 20.25 8.09315 20.25 9.75V17.25C20.25 18.9069 18.9069 20.25 17.25 20.25H9.75C8.09315 20.25 6.75 18.9069 6.75 17.25V9.75C6.75 8.09315 8.09315 6.75 9.75 6.75Z" fill="#286CE0"/>
</svg>
