<svg width="286" height="38" viewBox="0 0 286 38" fill="none" xmlns="http://www.w3.org/2000/svg">
<path d="M1.957 28.5L10.2695 14.079H14.8675L23.18 28.5H19.0095L17.4325 25.764H7.6475L6.0705 28.5H1.957ZM9.3955 22.724H15.6845L12.54 17.271L9.3955 22.724ZM25.6889 28.519V28.5095H25.6509V14.098H29.2609V25.479H42.6749V28.519H25.6889ZM45.561 28.519V28.5095H45.523V14.098H49.133V25.479H62.547V28.519H45.561ZM64.407 23.123V20.273H73.508V23.123H64.407ZM77.9764 28.5V14.079H81.5864V28.5H77.9764ZM86.0253 28.5V14.0695H89.5878L101.919 23.883V14.0695H105.481V28.5H101.919L89.5878 18.6865V28.5H86.0253ZM110.478 23.123V20.273H119.579V23.123H110.478ZM134.206 28.9845C129.361 28.9845 123.595 27.113 123.595 21.261C123.595 15.4185 129.361 13.547 134.206 13.547C139.061 13.547 144.827 15.4185 144.827 21.261C144.827 27.113 139.061 28.9845 134.206 28.9845ZM127.205 21.261C127.205 24.985 131.328 25.9445 134.206 25.9445C137.085 25.9445 141.217 24.985 141.217 21.261C141.217 17.537 137.085 16.587 134.206 16.587C131.328 16.587 127.205 17.537 127.205 21.261ZM148.61 28.5V14.0695H152.173L164.504 23.883V14.0695H168.066V28.5H164.504L152.173 18.6865V28.5H148.61ZM172.43 28.5V14.079H189.283V17.024H176.04V19.817H188.333V22.762H176.04V25.555H189.283V28.5H172.43Z" fill="white"/>
<path d="M212.12 29.06C209.53 29.06 206.69 28.36 204.4 27.03V25.62C206.6 27.1 209.49 27.85 212.12 27.85C214.54 27.85 220.08 27.49 220.08 24.07C220.08 22.37 218.42 21.74 216.03 21.52L209.53 20.93C207.13 20.71 204.23 20.24 204.23 17.26C204.23 13.77 209.24 12.8 212.03 12.8C214.41 12.8 216.99 13.15 218.87 13.99V15.33C217.19 14.39 214.42 14 212.04 14C210.2 14 205.43 14.61 205.43 17.34C205.43 19.2 207.63 19.54 209.25 19.69L215.61 20.27C219.23 20.6 221.28 21.56 221.28 24.1C221.28 28.41 215.37 29.06 212.12 29.06ZM231.576 29.06C228.406 29.06 226.166 27.91 226.166 23.78V18.43H224.216V17.23H226.166V17.18L226.366 14.63H227.366V17.23H233.616V18.43H227.366V23.78C227.366 26.92 228.696 27.86 231.576 27.86C232.876 27.86 233.796 27.52 234.246 27.27V28.5C233.926 28.67 232.886 29.06 231.576 29.06ZM242.708 29.05C239.348 29.05 236.148 27.8 236.148 22.66V17.19H237.348V22.66C237.348 26.42 239.168 27.85 242.668 27.85C245.728 27.85 248.658 26.09 248.658 22.38V17.19H249.858V28.5H248.858L248.658 25.83C247.358 28.17 244.778 29.05 242.708 29.05ZM259.632 29.01C256.752 29.01 252.332 27.65 252.332 22.82C252.332 17.99 256.752 16.63 259.632 16.63C261.912 16.63 264.742 17.26 266.162 19.45V14.07H267.362V28.46H266.362L266.162 26.19C264.742 28.38 261.912 29.01 259.632 29.01ZM253.532 22.84C253.532 26.35 256.542 27.81 259.862 27.81C263.092 27.81 266.162 26.43 266.162 22.8C266.162 19.09 262.942 17.83 259.572 17.83C256.372 17.83 253.532 19.44 253.532 22.84ZM270.972 33.85C270.552 33.85 270.142 33.8 269.712 33.71V32.49C270.152 32.6 270.572 32.65 270.972 32.65C272.432 32.65 273.642 31.93 274.362 30.63L275.542 28.5H275.512L269.212 17.19H270.582L276.212 27.3L281.842 17.19H283.222L275.412 31.21C274.452 32.95 272.812 33.85 270.972 33.85Z" fill="white" fill-opacity="0.32"/>
</svg>
